<?xml version="1.0" ?>
<!-- Uploaded to: SVG Repo, www.svgrepo.com, Generator: SVG Repo Mixer Tools -->
<svg width="800px" height="800px" viewBox="0 0 64.002 64.002" data-name="Medium Mug" id="Medium_Mug" xmlns="http://www.w3.org/2000/svg">
<rect fill="none" height="64.002" id="rect2317-1" transform="translate(0)" width="64"/>
<g id="g2120" transform="translate(8.189 13.101)">
<path d="M1.661,1.66S1.518,21.515,6.456,30.767c3.823,7.164,6.2,7.973,10.557,7.973,1.27,0,2.708-.069,4.4-.069s3.131.069,4.4.069c4.367,0,6.773-.809,10.606-7.973C41.374,21.515,41.218,1.66,41.218,1.66H1.661m0-2.257H41.218a2.257,2.257,0,0,1,2.256,2.239c.007.834.1,20.541-5.062,30.19-2.081,3.888-3.824,6.125-5.83,7.479A11.255,11.255,0,0,1,25.817,41c-.618,0-1.262-.015-1.944-.031-.777-.018-1.581-.037-2.46-.037s-1.683.019-2.46.037c-.68.016-1.323.031-1.939.031a11.174,11.174,0,0,1-6.746-1.689c-1.991-1.352-3.727-3.588-5.8-7.478C-.684,22.182-.6,2.478-.6,1.644A2.257,2.257,0,0,1,1.661-.6Z" id="path2122" transform="translate(0.596 0.596)"/>
</g>
<g id="g2124" transform="translate(48.216 20.999)">
<path d="M58.174,21.831s8.973-2.243,8.32,8.32S54.9,41.743,54.9,41.743" fill="none" id="path2126" stroke="#000000" stroke-width="2" transform="translate(-54.903 -21.632)"/>
</g>
<g id="g2128" transform="translate(13.722 28.486)">
<path d="M9.849,2.921c5.531,0,8.6,2.469,14.221,3.354s9.66-1.79,9.566-.838a33.267,33.267,0,0,1-3.541,12.325c-4.405,8.233-6.69,7.032-13.356,7.032s-8.914,1.2-13.307-7.032A41.8,41.8,0,0,1,.3,7.1C.134,4.887,4.318,2.921,9.849,2.921Z" id="path2130" transform="translate(-0.3 -2.921)"/>
</g>
</svg>